<svg width="16" height="16" viewBox="16 0 16 16" xml:space="preserve" xmlns="http://www.w3.org/2000/svg">
   <title>edita</title>
   <path d="M28.354 1.354a.5.5 0 0 0-.141-.805 5.984 5.984 0 0 0-6.798 1.191c-1.698 1.709-2.291 4.393-1.499 6.637L8.377 19.916a5.908 5.908 0 0 0-1.996-.336c-1.714 0-3.376.682-4.559 1.872a6.082 6.082 0 0 0-1.281 6.747c.14.326.565.406.813.153l3.491-3.509c.23-.232.601-.263.793-.068l1.507 1.577c.219.221.209.562-.022.795l-3.478 3.5a.499.499 0 0 0 .141.804c.81.386 1.694.587 2.591.588 1.572 0 3.065-.632 4.207-1.78 1.698-1.708 2.291-4.392 1.498-6.636l11.539-11.54c.641.226 1.317.34 1.997.336 1.714 0 3.376-.682 4.559-1.872A6.082 6.082 0 0 0 31.458 3.8a.498.498 0 0 0-.813-.153l-3.491 3.509a.569.569 0 0 1-.801-.01l-1.499-1.499a.551.551 0 0 1-.001-.794Zm-4.24 5.217 1.5 1.5c.598.6 1.378.737 1.971.141l3.313-3.159c.47 1.74-.02 3.239-1.33 4.555-.996 1.003-2.398 1.577-3.85 1.577-.682 0-1.33-.128-1.922-.38-.188-.08-.648-.075-.792.068l-12 12c-.144.144-.293.397-.214.584.803 1.91.314 4.375-1.163 5.861-1.32 1.328-2.627 1.896-4.368 1.353l2.85-2.811c.62-.625.627-1.732.025-2.336l-1.506-1.577c-.58-.585-2.013-.593-2.617.018L1.3 26.858c-.468-1.74-.308-2.916 1-4.233.997-1.003 2.399-1.577 3.85-1.577.683 0 1.33.128 1.923.38.187.082.683-.21.826-.354l12-12c.144-.144.24-.571.161-.758-.803-1.91-.314-4.376 1.163-5.862 1.32-1.328 3.156-1.68 4.896-1.14L23.726 4.55c-.616.617-.228 1.4.388 2.02z" style="fill:var(--cor-fonte-view);stroke-width:1;stroke-dasharray:none"/>
</svg>